<?xml version="1.0" encoding="UTF-8"?>
<svg id="Logos_-_Light_Theme" data-name="Logos - Light Theme" xmlns="http://www.w3.org/2000/svg" width="1038" height="400" viewBox="0 0 1038 400">
  <defs>
    <style>
      .cls-1 {
        fill: #e95420;
      }

      .cls-1, .cls-2, .cls-3, .cls-4 {
        stroke-width: 0px;
      }

      .cls-2 {
        fill: none;
      }

      .cls-3 {
        fill: #000;
      }

      .cls-4 {
        fill: #fff;
      }
    </style>
  </defs>
  <g id="Tags-3" data-name="Tags">
    <g>
      <g>
        <rect class="cls-1" width="233" height="400"/>
        <ellipse class="cls-4" cx="53.28674" cy="268.08247" rx="24.12834" ry="24.08259"/>
        <ellipse class="cls-4" cx="153.77231" cy="215.27576" rx="24.12834" ry="24.08259"/>
        <path class="cls-4" d="M107.70448,330.06138c-17.3796-3.71697-31.90619-14.79793-40.07218-30.50403-6.43115,2.92088-13.66565,3.81181-20.62997,2.53099,9.88211,24.21489,30.8341,41.80534,56.55197,47.30606,5.64507,1.20801,11.39764,1.7943,17.13341,1.75981-4.4314-5.81399-6.89953-12.82449-7.06462-20.13485-1.98727-.22034-3.97214-.54222-5.91861-.95798Z"/>
        <ellipse class="cls-4" cx="148.33631" cy="330.19423" rx="24.12834" ry="24.08259"/>
        <path class="cls-4" d="M181.912,321.34854c7.50469-9.43707,12.78455-20.59947,15.33139-32.46119,4.44004-20.68281.2937-42.38108-11.37556-59.98399-2.77718,6.53343-7.49797,12.06194-13.56823,15.86033,6.51081,12.24683,8.49184,26.38567,5.57309,39.98038-1.42818,6.65414-3.9515,12.92508-7.50661,18.66243,5.67435,4.64812,9.68871,10.90087,11.54593,17.94203Z"/>
        <path class="cls-4" d="M51.4251,233.54575c.61235-.03353,1.22519-.04982,1.83802-.04982,2.43598,0,4.87147.25865,7.28297.77405,3.93375.84111,7.63234,2.32885,11.01516,4.42683,10.86303-15.59497,28.38996-24.95158,47.38347-25.29357.1003-1.81825.34409-3.63602.72753-5.42122,1.10713-5.15777,3.36794-9.9836,6.59239-14.10962-30.34172-2.39831-59.82441,13.22924-74.83954,39.67335Z"/>
      </g>
      <rect class="cls-2" x="27.74504" y="188.84427" width="177.56823" height="177.23149"/>
    </g>
  </g>
  <g id="Canonical_Curves-3" data-name="Canonical Curves">
    <g>
      <path class="cls-3" d="M313.06575,153.90943c-5.28243,0-10.02733-1.21777-14.23471-3.65332-4.20933-2.43652-7.51855-5.98828-9.92569-10.6582-2.41008-4.66797-3.61414-10.39648-3.61414-17.18262,0-5.0459.75449-9.52637,2.26446-13.44141,1.50801-3.91504,3.58287-7.20605,6.22457-9.87402,2.64073-2.66699,5.65968-4.68359,9.05588-6.04688,3.39522-1.3623,6.94974-2.04395,10.66553-2.04395,3.07564,0,5.76034.24707,8.05412.73926,2.29182.49316,4.19272,1.05859,5.70268,1.69629,1.50899.63867,2.61141,1.18945,3.30824,1.65332l-2.1765,5.74219c-1.45132-.87012-3.32388-1.70996-5.6157-2.52344-2.29378-.81152-5.06547-1.21777-8.31506-1.21777-4.76054,0-8.78027,1.05859-12.05919,3.17578-3.2799,2.11719-5.76132,5.0752-7.44427,8.87402-1.68393,3.79883-2.52443,8.25098-2.52443,13.35449,0,5.10449.81216,9.55566,2.43744,13.35449,1.62431,3.79883,4.01875,6.74219,7.18332,8.83008,3.16262,2.08789,7.0377,3.13184,11.6233,3.13184,3.83111,0,7.02304-.36133,9.57777-1.08691,2.55375-.72461,4.52696-1.46484,5.92062-2.21875l1.82857,5.74219c-.92943.58008-2.94761,1.33496-6.05158,2.26172-3.10593.92676-7.06702,1.3916-11.88523,1.3916Z"/>
      <path class="cls-3" d="M354.42216,153.56178c-3.25155,0-6.15323-.46484-8.70697-1.3916-2.55472-.92773-4.55726-2.43652-6.0076-4.52441-1.45132-2.08789-2.1765-4.8418-2.1765-8.26465,0-3.30664.81216-5.98828,2.43842-8.04785,1.62431-2.05859,3.87411-3.55176,6.74744-4.48047,2.87333-.92676,6.10827-1.3916,9.70775-1.3916,1.62431,0,3.33756.14453,5.13681.43457,1.79925.29102,2.93099.55176,3.3962.7832v-2.61035c0-1.9707-.24726-3.87109-.73983-5.69824-.49453-1.82715-1.4953-3.31934-3.00429-4.48047-1.50996-1.16016-3.80276-1.74023-6.8784-1.74023-3.19291,0-5.63036.23242-7.31331.69629-1.6849.46484-2.93197.84082-3.74412,1.13086l-.87079-5.56836c1.04476-.46289,2.64073-.89844,4.78888-1.30469,2.1462-.40527,4.6716-.60938,7.57523-.60938,4.12039,0,7.38563.72656,9.79473,2.17578,2.40812,1.4502,4.14971,3.43652,5.22379,5.95898,1.07408,2.52344,1.61063,5.40918,1.61063,8.65625v28.27539c-1.21872.29102-3.39522.69629-6.5295,1.21777-3.13427.52246-6.61745.7832-10.44856.7832ZM355.37993,147.99342c2.03088,0,3.85945-.07129,5.48571-.2168,1.62431-.14453,2.98865-.33301,4.09205-.56543v-15.13867c-.58151-.28906-1.56763-.5791-2.96031-.87012-1.39366-.28906-3.19291-.43457-5.39873-.43457-1.85789,0-3.74315.2041-5.6587.60938-1.91555.40625-3.52618,1.21777-4.83286,2.43555-1.3057,1.21777-1.95856,3.04492-1.95856,5.48145,0,3.24805,1.01446,5.51074,3.04729,6.78516,2.03088,1.27637,4.75859,1.91406,8.1841,1.91406Z"/>
      <path class="cls-3" d="M385.50396,152.60475v-43.5c1.79925-.46387,4.14971-.98535,7.05334-1.56641,2.90167-.5791,6.38387-.86914,10.44758-.86914,4.7019,0,8.35904.86914,10.97045,2.60938,2.61238,1.74023,4.45464,4.16211,5.52872,7.26465,1.07408,3.10352,1.61063,6.71387,1.61063,10.83105v25.23047h-6.5295v-23.40332c0-4.11719-.37822-7.39453-1.13174-9.83105-.75547-2.43555-2.03283-4.2041-3.83111-5.30664-1.80023-1.10156-4.29631-1.65332-7.48825-1.65332-2.43744,0-4.5856.14551-6.44251.43555-1.85887.29102-3.07759.52148-3.65714.69531v39.06348h-6.53047Z"/>
      <path class="cls-3" d="M453.33018,153.64869c-4.00507,0-7.57523-.97168-10.70951-2.91406-3.13427-1.94336-5.58736-4.68359-7.35729-8.22168-1.77091-3.53711-2.65539-7.68457-2.65539-12.44141,0-4.75488.88448-8.8877,2.65539-12.39746,1.76993-3.50879,4.22301-6.24902,7.35729-8.22168,3.13427-1.9707,6.70444-2.95801,10.70951-2.95801,4.06175,0,7.66124.9873,10.79649,2.95801,3.13427,1.97266,5.5854,4.71289,7.35729,8.22168,1.76993,3.50977,2.65539,7.64258,2.65539,12.39746,0,4.75684-.88545,8.9043-2.65539,12.44141-1.77189,3.53809-4.20933,6.27832-7.31429,8.22168-3.10593,1.94238-6.7191,2.91406-10.83949,2.91406ZM453.33018,147.81959c2.90167,0,5.39776-.72461,7.48727-2.1748,2.08952-1.44922,3.70112-3.50879,4.83286-6.17676,1.13174-2.66699,1.69761-5.7998,1.69761-9.39648,0-3.5957-.56587-6.72754-1.69761-9.39551-1.13174-2.66699-2.74335-4.72656-4.83286-6.17773-2.08952-1.44824-4.5856-2.1748-7.48727-2.1748-2.84499,0-5.31175.72656-7.40127,2.1748-2.08952,1.45117-3.70015,3.51074-4.83189,6.17773-1.13174,2.66797-1.69761,5.7998-1.69761,9.39551,0,3.59668.56587,6.72949,1.69761,9.39648,1.13174,2.66797,2.74237,4.72754,4.83189,6.17676,2.08952,1.4502,4.55628,2.1748,7.40127,2.1748Z"/>
      <path class="cls-3" d="M486.15357,152.60475v-43.5c1.79925-.46387,4.14971-.98535,7.05334-1.56641,2.90167-.5791,6.38387-.86914,10.44758-.86914,4.7019,0,8.35904.86914,10.97045,2.60938,2.61238,1.74023,4.45464,4.16211,5.52872,7.26465,1.07408,3.10352,1.61063,6.71387,1.61063,10.83105v25.23047h-6.5295v-23.40332c0-4.11719-.37822-7.39453-1.13174-9.83105-.75547-2.43555-2.03283-4.2041-3.83111-5.30664-1.80023-1.10156-4.29631-1.65332-7.48825-1.65332-2.43744,0-4.5856.14551-6.44251.43555-1.85887.29102-3.07759.52148-3.65714.69531v39.06348h-6.53047Z"/>
      <path class="cls-3" d="M539.17823,96.75123c-1.27736,0-2.3661-.43555-3.26524-1.30566-.90109-.87012-1.34968-2.0293-1.34968-3.47949,0-1.39258.44859-2.52344,1.34968-3.39355.89914-.87012,1.98788-1.30469,3.26524-1.30469,1.27541,0,2.36414.43457,3.26524,1.30469.89914.87012,1.34871,2.00098,1.34871,3.39355,0,1.4502-.44957,2.60938-1.34871,3.47949-.90109.87012-1.98983,1.30566-3.26524,1.30566ZM535.86902,152.60475v-45.06641h6.53047v45.06641h-6.53047Z"/>
      <path class="cls-3" d="M576.00767,153.56178c-4.76054,0-8.73727-.9707-11.92823-2.91406-3.19389-1.94336-5.60299-4.68359-7.2273-8.22168-1.62529-3.53711-2.43744-7.62598-2.43744-12.26758,0-4.69727.8405-8.81543,2.52443-12.35352,1.68295-3.53711,4.10573-6.30762,7.27031-8.30859,3.16359-2.00098,6.92238-3.00195,11.27538-3.00195,2.37978,0,4.64326.2041,6.79142.60938,2.1462.40625,3.83111.92871,5.04983,1.56641l-1.65461,5.48047c-1.16106-.52148-2.46774-.95703-3.91809-1.30469-1.45132-.34863-3.36688-.52246-5.74568-.52246-4.81918,0-8.49001,1.56641-11.01443,4.69824-2.5254,3.13184-3.78713,7.51172-3.78713,13.13672,0,3.48047.52189,6.54004,1.56665,9.17871,1.04476,2.63965,2.72771,4.69824,5.04983,6.17676,2.32114,1.47949,5.39873,2.21875,9.22984,2.21875,2.26348,0,4.25136-.26074,5.96363-.7832,1.71129-.52148,2.97399-.98535,3.78713-1.3916l1.30668,5.56836c-1.1034.58008-2.78635,1.13086-5.04983,1.65234-2.26446.52246-4.61492.7832-7.05236.7832Z"/>
      <path class="cls-3" d="M610.92156,153.56178c-3.25155,0-6.15323-.46484-8.70697-1.3916-2.55472-.92773-4.55726-2.43652-6.0076-4.52441-1.45132-2.08789-2.1765-4.8418-2.1765-8.26465,0-3.30664.81216-5.98828,2.43842-8.04785,1.62431-2.05859,3.87411-3.55176,6.74744-4.48047,2.87333-.92676,6.10827-1.3916,9.70775-1.3916,1.62431,0,3.33756.14453,5.13681.43457,1.79925.29102,2.93099.55176,3.3962.7832v-2.61035c0-1.9707-.24726-3.87109-.73983-5.69824-.49453-1.82715-1.4953-3.31934-3.00429-4.48047-1.50996-1.16016-3.80276-1.74023-6.8784-1.74023-3.19291,0-5.63036.23242-7.31331.69629-1.6849.46484-2.93197.84082-3.74412,1.13086l-.87079-5.56836c1.04476-.46289,2.64073-.89844,4.78888-1.30469,2.1462-.40527,4.6716-.60938,7.57523-.60938,4.12039,0,7.38563.72656,9.79473,2.17578,2.40812,1.4502,4.14971,3.43652,5.22379,5.95898,1.07408,2.52344,1.61063,5.40918,1.61063,8.65625v28.27539c-1.21872.29102-3.39522.69629-6.5295,1.21777-3.13427.52246-6.61745.7832-10.44856.7832ZM611.87934,147.99342c2.03088,0,3.85945-.07129,5.48571-.2168,1.62431-.14453,2.98865-.33301,4.09205-.56543v-15.13867c-.58151-.28906-1.56763-.5791-2.96031-.87012-1.39366-.28906-3.19291-.43457-5.39873-.43457-1.85789,0-3.74315.2041-5.6587.60938-1.91555.40625-3.52618,1.21777-4.83286,2.43555-1.3057,1.21777-1.95856,3.04492-1.95856,5.48145,0,3.24805,1.01446,5.51074,3.04729,6.78516,2.03088,1.27637,4.75859,1.91406,8.1841,1.91406Z"/>
      <path class="cls-3" d="M654.19449,153.38795c-2.78635-.11719-5.09381-.58105-6.92238-1.39258s-3.17728-2.07227-4.04807-3.78418c-.87079-1.70996-1.30668-4.01562-1.30668-6.91602v-55.07129l6.53047-1.13086v55.7666c0,2.78418.50723,4.58301,1.52365,5.39453,1.01446.8125,2.74237,1.3916,5.18079,1.73926l-.95778,5.39453Z"/>
    </g>
  </g>
  <g id="Wordmark_Curves-3" data-name="Wordmark Curves">
    <g>
      <path class="cls-3" d="M350.35356,357.89381c-14.45754,0-26.03979-2.7959-34.74383-8.3877-8.70795-5.59277-15.041-13.20117-19.00502-22.83398-3.96402-9.62988-5.94603-20.4248-5.94603-32.3877v-101.35449h18.18798v99.25781c0,17.24219,3.84772,29.78711,11.54316,37.62988,7.69446,7.84473,17.68173,11.76562,29.96375,11.76562,12.43546,0,22.50189-3.96094,30.19733-11.88281,7.69446-7.92188,11.54219-20.42383,11.54219-37.5127v-99.25781h18.18798v101.35449c0,11.96289-1.98201,22.75781-5.94603,32.3877-3.96402,9.63281-10.30001,17.24121-19.00405,22.83398-8.70795,5.5918-20.36741,8.3877-34.97741,8.3877Z"/>
      <path class="cls-3" d="M494.22626,357.19459c-6.84224,0-13.05801-.34961-18.65514-1.04883-5.59615-.69824-10.53261-1.55371-14.80644-2.5625-4.27774-1.00879-7.96811-1.98047-11.076-2.91211v-174.05176l17.48822-3.02832v66.87109c2.79808-2.01758,7.03184-4.07812,12.70813-6.1748,5.67336-2.09766,12.24195-3.14551,19.70381-3.14551,11.65946,0,21.52945,2.67969,29.61484,8.03809,8.08051,5.35938,14.26012,12.7793,18.53786,22.25195,4.27383,9.47656,6.41222,20.35059,6.41222,32.62012,0,13.04785-2.48826,24.27148-7.46186,33.66797-4.97653,9.40039-11.97221,16.66016-20.98606,21.78613-9.01776,5.12598-19.51128,7.68848-31.47957,7.68848ZM493.99268,341.58326c8.3952,0,15.73979-1.86328,22.0357-5.5918,6.29591-3.72754,11.15321-9.12305,14.57384-16.19336,3.4177-7.06641,5.12997-15.64746,5.12997-25.74609,0-6.52441-.66263-12.65918-1.98201-18.40723-1.32232-5.74512-3.49784-10.79492-6.52852-15.14551-3.03166-4.34668-6.99568-7.72461-11.89304-10.13477-4.89639-2.40723-10.84242-3.6123-17.8381-3.6123-6.68587,0-12.7482,1.12891-18.18798,3.37891-5.44369,2.25391-9.48394,4.4668-12.12565,6.64062v81.7832c2.17552.62207,5.47985,1.28125,9.91006,1.98047,4.43118.69922,10.0635,1.04785,16.90573,1.04785Z"/>
      <path class="cls-3" d="M633.19964,356.72877c-12.12467,0-21.72589-2.29395-28.7978-6.87402-7.07582-4.5791-12.12565-11.06738-15.15633-19.45508-3.03166-8.3877-4.54748-18.09375-4.54748-29.125v-67.57031h17.4892v62.91016c0,10.875,1.08581,19.57227,3.26426,26.0957,2.17454,6.52441,5.71245,11.22461,10.60982,14.09668,4.89639,2.87598,11.38581,4.31055,19.47023,4.31055,6.5295,0,12.31916-.34961,17.37192-1.04785,5.04983-.69922,8.35513-1.28223,9.91006-1.74805v-104.61719h17.25562v116.5c-4.66379,1.24512-10.92256,2.64355-18.77047,4.19434-7.85181,1.55078-17.21945,2.33008-28.09901,2.33008Z"/>
      <path class="cls-3" d="M719.24414,354.39869v-116.5c4.81625-1.24121,11.11216-2.63965,18.88774-4.19434,7.77167-1.55078,17.09827-2.33008,27.98174-2.33008,12.59183,0,22.38558,2.33008,29.38029,6.99023,6.99568,4.66016,11.9292,11.14746,14.80742,19.45605,2.87431,8.31152,4.3139,17.98047,4.3139,29.00781v67.57031h-17.4892v-62.67676c0-11.02734-1.01251-19.80566-3.03068-26.3291-2.02208-6.52441-5.44369-11.26074-10.25994-14.21289-4.82016-2.94922-11.50602-4.42773-20.05369-4.42773-6.5295,0-12.28202.38965-17.25562,1.16504-4.97653.7793-8.24177,1.39844-9.79375,1.86426v104.61719h-17.48822Z"/>
      <path class="cls-3" d="M891.79834,356.96217c-10.25994,0-18.34533-1.78809-24.25129-5.35938-5.90987-3.57129-10.06643-8.93066-12.47455-16.07715-2.41203-7.14258-3.61512-16.07715-3.61512-26.79492v-109.97559l17.4892-3.0293v37.97852h47.33566v14.67969h-47.33566v61.74512c0,8.54395.96853,15.06836,2.91438,19.57129,1.94194,4.50781,4.74002,7.57227,8.39423,9.2041,3.65128,1.63086,7.96518,2.44629,12.94171,2.44629,5.90596,0,10.8434-.69922,14.80742-2.09668,3.96402-1.39844,7.11198-2.63965,9.44387-3.72852l3.73044,14.21289c-2.33189,1.39844-6.17864,2.95312-11.54219,4.66016-5.36355,1.70703-11.30958,2.56348-17.8381,2.56348Z"/>
      <path class="cls-3" d="M991.13052,356.72877c-12.12467,0-21.72589-2.29395-28.7978-6.87402-7.07582-4.5791-12.12565-11.06738-15.15633-19.45508-3.03166-8.3877-4.54748-18.09375-4.54748-29.125v-67.57031h17.4892v62.91016c0,10.875,1.08581,19.57227,3.26426,26.0957,2.17454,6.52441,5.71245,11.22461,10.60982,14.09668,4.89639,2.87598,11.38581,4.31055,19.47023,4.31055,6.5295,0,12.31916-.34961,17.37192-1.04785,5.04983-.69922,8.35513-1.28223,9.91006-1.74805v-104.61719h17.25562v116.5c-4.66379,1.24512-10.92256,2.64355-18.77047,4.19434-7.85181,1.55078-17.21945,2.33008-28.09901,2.33008Z"/>
    </g>
  </g>
</svg>