<?xml version="1.0" encoding="UTF-8"?>
<svg id="Logos_-_Dark_Theme" data-name="Logos - Dark Theme" xmlns="http://www.w3.org/2000/svg" width="1038" height="400" viewBox="0 0 1038 400">
  <defs>
    <style>
      .cls-1 {
        fill: #e95420;
      }

      .cls-1, .cls-2, .cls-3 {
        stroke-width: 0px;
      }

      .cls-2 {
        fill: none;
      }

      .cls-3 {
        fill: #fff;
      }
    </style>
  </defs>
  <g id="Tags-2" data-name="Tags">
    <g>
      <g>
        <rect class="cls-1" width="233" height="400"/>
        <ellipse class="cls-3" cx="53.28674" cy="268.08247" rx="24.12834" ry="24.08259"/>
        <ellipse class="cls-3" cx="153.77231" cy="215.27576" rx="24.12834" ry="24.08259"/>
        <path class="cls-3" d="M107.70448,330.06138c-17.3796-3.71697-31.90619-14.79793-40.07218-30.50403-6.43115,2.92088-13.66565,3.81181-20.62997,2.53099,9.88211,24.21489,30.8341,41.80534,56.55197,47.30606,5.64507,1.20801,11.39764,1.7943,17.13341,1.75981-4.4314-5.81399-6.89953-12.82449-7.06462-20.13485-1.98727-.22034-3.97214-.54222-5.91861-.95798Z"/>
        <ellipse class="cls-3" cx="148.33631" cy="330.19423" rx="24.12834" ry="24.08259"/>
        <path class="cls-3" d="M181.912,321.34854c7.50469-9.43707,12.78455-20.59947,15.33139-32.46119,4.44004-20.68281.2937-42.38108-11.37556-59.98399-2.77718,6.53343-7.49797,12.06194-13.56823,15.86033,6.51081,12.24683,8.49184,26.38567,5.57309,39.98038-1.42818,6.65414-3.9515,12.92508-7.50661,18.66243,5.67435,4.64812,9.68871,10.90087,11.54593,17.94203Z"/>
        <path class="cls-3" d="M51.4251,233.54575c.61235-.03353,1.22519-.04982,1.83802-.04982,2.43598,0,4.87147.25865,7.28297.77405,3.93375.84111,7.63234,2.32885,11.01516,4.42683,10.86303-15.59497,28.38996-24.95158,47.38347-25.29357.1003-1.81825.34409-3.63602.72753-5.42122,1.10713-5.15777,3.36794-9.9836,6.59239-14.10962-30.34172-2.39831-59.82441,13.22924-74.83954,39.67335Z"/>
      </g>
      <rect class="cls-2" x="27.74504" y="188.84427" width="177.56823" height="177.23149"/>
    </g>
  </g>
  <g id="Wordmark_Curves-2" data-name="Wordmark Curves">
    <g>
      <path class="cls-3" d="M350.35356,357.89381c-14.45754,0-26.03979-2.7959-34.74383-8.3877-8.70795-5.59277-15.041-13.20117-19.00502-22.83398-3.96402-9.62988-5.94603-20.4248-5.94603-32.3877v-101.35449h18.18798v99.25781c0,17.24219,3.84772,29.78711,11.54316,37.62988,7.69446,7.84473,17.68173,11.76562,29.96375,11.76562,12.43546,0,22.50189-3.96094,30.19733-11.88281,7.69446-7.92188,11.54219-20.42383,11.54219-37.5127v-99.25781h18.18798v101.35449c0,11.96289-1.98201,22.75781-5.94603,32.3877-3.96402,9.63281-10.30001,17.24121-19.00405,22.83398-8.70795,5.5918-20.36741,8.3877-34.97741,8.3877Z"/>
      <path class="cls-3" d="M494.22626,357.19459c-6.84224,0-13.05801-.34961-18.65514-1.04883-5.59615-.69824-10.53261-1.55371-14.80644-2.5625-4.27774-1.00879-7.96811-1.98047-11.076-2.91211v-174.05176l17.48822-3.02832v66.87109c2.79808-2.01758,7.03184-4.07812,12.70813-6.1748,5.67336-2.09766,12.24195-3.14551,19.70381-3.14551,11.65946,0,21.52945,2.67969,29.61484,8.03809,8.08051,5.35938,14.26012,12.7793,18.53786,22.25195,4.27383,9.47656,6.41222,20.35059,6.41222,32.62012,0,13.04785-2.48826,24.27148-7.46186,33.66797-4.97653,9.40039-11.97221,16.66016-20.98606,21.78613-9.01776,5.12598-19.51128,7.68848-31.47957,7.68848ZM493.99268,341.58326c8.3952,0,15.73979-1.86328,22.0357-5.5918,6.29591-3.72754,11.15321-9.12305,14.57384-16.19336,3.4177-7.06641,5.12997-15.64746,5.12997-25.74609,0-6.52441-.66263-12.65918-1.98201-18.40723-1.32232-5.74512-3.49784-10.79492-6.52852-15.14551-3.03166-4.34668-6.99568-7.72461-11.89304-10.13477-4.89639-2.40723-10.84242-3.6123-17.8381-3.6123-6.68587,0-12.7482,1.12891-18.18798,3.37891-5.44369,2.25391-9.48394,4.4668-12.12565,6.64062v81.7832c2.17552.62207,5.47985,1.28125,9.91006,1.98047,4.43118.69922,10.0635,1.04785,16.90573,1.04785Z"/>
      <path class="cls-3" d="M633.19964,356.72877c-12.12467,0-21.72589-2.29395-28.7978-6.87402-7.07582-4.5791-12.12565-11.06738-15.15633-19.45508-3.03166-8.3877-4.54748-18.09375-4.54748-29.125v-67.57031h17.4892v62.91016c0,10.875,1.08581,19.57227,3.26426,26.0957,2.17454,6.52441,5.71245,11.22461,10.60982,14.09668,4.89639,2.87598,11.38581,4.31055,19.47023,4.31055,6.5295,0,12.31916-.34961,17.37192-1.04785,5.04983-.69922,8.35513-1.28223,9.91006-1.74805v-104.61719h17.25562v116.5c-4.66379,1.24512-10.92256,2.64355-18.77047,4.19434-7.85181,1.55078-17.21945,2.33008-28.09901,2.33008Z"/>
      <path class="cls-3" d="M719.24414,354.39869v-116.5c4.81625-1.24121,11.11216-2.63965,18.88774-4.19434,7.77167-1.55078,17.09827-2.33008,27.98174-2.33008,12.59183,0,22.38558,2.33008,29.38029,6.99023,6.99568,4.66016,11.9292,11.14746,14.80742,19.45605,2.87431,8.31152,4.3139,17.98047,4.3139,29.00781v67.57031h-17.4892v-62.67676c0-11.02734-1.01251-19.80566-3.03068-26.3291-2.02208-6.52441-5.44369-11.26074-10.25994-14.21289-4.82016-2.94922-11.50602-4.42773-20.05369-4.42773-6.5295,0-12.28202.38965-17.25562,1.16504-4.97653.7793-8.24177,1.39844-9.79375,1.86426v104.61719h-17.48822Z"/>
      <path class="cls-3" d="M891.79834,356.96217c-10.25994,0-18.34533-1.78809-24.25129-5.35938-5.90987-3.57129-10.06643-8.93066-12.47455-16.07715-2.41203-7.14258-3.61512-16.07715-3.61512-26.79492v-109.97559l17.4892-3.0293v37.97852h47.33566v14.67969h-47.33566v61.74512c0,8.54395.96853,15.06836,2.91438,19.57129,1.94194,4.50781,4.74002,7.57227,8.39423,9.2041,3.65128,1.63086,7.96518,2.44629,12.94171,2.44629,5.90596,0,10.8434-.69922,14.80742-2.09668,3.96402-1.39844,7.11198-2.63965,9.44387-3.72852l3.73044,14.21289c-2.33189,1.39844-6.17864,2.95312-11.54219,4.66016s-11.30958,2.56348-17.8381,2.56348Z"/>
      <path class="cls-3" d="M991.13052,356.72877c-12.12467,0-21.72589-2.29395-28.7978-6.87402-7.07582-4.5791-12.12565-11.06738-15.15633-19.45508-3.03166-8.3877-4.54748-18.09375-4.54748-29.125v-67.57031h17.4892v62.91016c0,10.875,1.08581,19.57227,3.26426,26.0957,2.17454,6.52441,5.71245,11.22461,10.60982,14.09668,4.89639,2.87598,11.38581,4.31055,19.47023,4.31055,6.5295,0,12.31916-.34961,17.37192-1.04785,5.04983-.69922,8.35513-1.28223,9.91006-1.74805v-104.61719h17.25562v116.5c-4.66379,1.24512-10.92256,2.64355-18.77047,4.19434-7.85181,1.55078-17.21945,2.33008-28.09901,2.33008Z"/>
    </g>
  </g>
</svg>